# xmcd
#
# Track frame offsets:
# 150
# 24521
# 40095
# 53457
# 64272
# 85147
# 101417
# 123428
# 142658
#
# Disc length: 2088 seconds
#
#
# Revision: 0
# Processed by: cddbd v1.5.2PL0 Copyright (c) Steve Scherf et al.
# Submitted via: Nero 7, 11, 10, 0 
#
DISCID=67082609
DTITLE=Isaac Scott - Listen To The Blues
DYEAR=1900
DGENRE=Blues
TTITLE0=Listen To The Blues
TTITLE1=Help
TTITLE2=Standing On The Outside
TTITLE3=Seattle Blues
TTITLE4=Moonbelly
TTITLE5=Don't Let My Baby Ride
TTITLE6=Let My Mind Run Back
TTITLE7=Feast Goin' On
TTITLE8=On The Road Again
EXTD=
EXTT0=Listen To The Blues
EXTT1=Help
EXTT2=Standing On The Outside
EXTT3=Seattle Blues
EXTT4=Moonbelly
EXTT5=Don't Let My Baby Ride
EXTT6=Let My Mind Run Back
EXTT7=Feast Goin' On
EXTT8=On The Road Again
PLAYORDER=
